<mxfile host="app.diagrams.net" modified="2023-06-27T18:25:26.548Z" agent="Mozilla/5.0 (Windows NT 10.0; Win64; x64) AppleWebKit/537.36 (KHTML, like Gecko) Chrome/114.0.0.0 Safari/537.36" etag="mLlC34yyLzNlDbpa2Qiw" version="21.5.0" type="github">
  <diagram name="Page-1" id="9R3Zc_Gyksz3_oiIvIxs">
    <mxGraphModel dx="2035" dy="1245" grid="1" gridSize="10" guides="1" tooltips="1" connect="1" arrows="1" fold="1" page="1" pageScale="1" pageWidth="850" pageHeight="1100" math="0" shadow="0">
      <root>
        <mxCell id="0" />
        <mxCell id="1" parent="0" />
        <mxCell id="_yqkkNchXxHQxlyg9AlW-66" style="edgeStyle=orthogonalEdgeStyle;rounded=0;orthogonalLoop=1;jettySize=auto;html=1;entryX=0;entryY=0.5;entryDx=0;entryDy=0;entryPerimeter=0;endArrow=none;endFill=0;fillColor=#f8cecc;strokeColor=#b85450;" parent="1" source="XI3wudiz58Q5bQnYktP5-1" target="_yqkkNchXxHQxlyg9AlW-56" edge="1">
          <mxGeometry relative="1" as="geometry">
            <Array as="points">
              <mxPoint x="698.01" y="380" />
              <mxPoint x="820.01" y="380" />
            </Array>
          </mxGeometry>
        </mxCell>
        <mxCell id="XI3wudiz58Q5bQnYktP5-1" value="Methanol&lt;br&gt;Fill Tank" style="shape=mxgraph.pid.vessels.tank;html=1;pointerEvents=1;align=center;verticalLabelPosition=middle;verticalAlign=middle;dashed=0;labelPosition=center;fillColor=#f8cecc;strokeColor=#b85450;" parent="1" vertex="1">
          <mxGeometry x="660.0099999999999" y="140" width="75.79" height="180" as="geometry" />
        </mxCell>
        <mxCell id="XI3wudiz58Q5bQnYktP5-2" value="Nitrous&lt;br&gt;Oxide Fill" style="shape=mxgraph.pid.vessels.tank;html=1;pointerEvents=1;align=center;verticalLabelPosition=middle;verticalAlign=middle;dashed=0;labelPosition=center;fillColor=#dae8fc;strokeColor=#6c8ebf;" parent="1" vertex="1">
          <mxGeometry x="940.0099999999998" y="140.00000000000006" width="75.79" height="180" as="geometry" />
        </mxCell>
        <mxCell id="IiVtz0PxDhAB9-K3nGWh-4" value="" style="verticalLabelPosition=bottom;align=center;html=1;verticalAlign=top;pointerEvents=1;dashed=0;shape=mxgraph.pid2valves.valve;valveType=check;rotation=0;" parent="1" vertex="1">
          <mxGeometry x="3.51" y="340" width="80" height="48" as="geometry" />
        </mxCell>
        <mxCell id="IiVtz0PxDhAB9-K3nGWh-5" value="" style="verticalLabelPosition=bottom;align=center;html=1;verticalAlign=top;pointerEvents=1;dashed=0;shape=mxgraph.pid2valves.valve;valveType=gate;actuator=solenoid;rotation=0;" parent="1" vertex="1">
          <mxGeometry x="3.51" width="80" height="80" as="geometry" />
        </mxCell>
        <mxCell id="IiVtz0PxDhAB9-K3nGWh-7" value="" style="endArrow=none;html=1;rounded=0;strokeWidth=2;" parent="1" edge="1">
          <mxGeometry width="50" height="50" relative="1" as="geometry">
            <mxPoint x="3.51" y="840" as="sourcePoint" />
            <mxPoint x="80" y="840" as="targetPoint" />
          </mxGeometry>
        </mxCell>
        <mxCell id="IiVtz0PxDhAB9-K3nGWh-10" value="Solenoid Valve" style="text;html=1;align=left;verticalAlign=middle;resizable=0;points=[];autosize=1;fontSize=16;" parent="1" vertex="1">
          <mxGeometry x="83.51" y="21.879999999999995" width="130" height="30" as="geometry" />
        </mxCell>
        <mxCell id="IiVtz0PxDhAB9-K3nGWh-11" value="Pressure Regulator" style="text;html=1;align=left;verticalAlign=middle;resizable=0;points=[];autosize=1;fontSize=16;" parent="1" vertex="1">
          <mxGeometry x="83.51" y="423" width="160" height="30" as="geometry" />
        </mxCell>
        <mxCell id="IiVtz0PxDhAB9-K3nGWh-17" value="T.H.A.N.O.S Ground Filling System P&amp;amp;ID V1.2&lt;br style=&quot;font-size: 12px;&quot;&gt;&lt;font size=&quot;1&quot;&gt;By: Martin Leung Date: 2023/06/21&lt;br&gt;&lt;/font&gt;" style="text;html=1;strokeColor=none;fillColor=none;align=center;verticalAlign=middle;whiteSpace=wrap;rounded=0;fontSize=30;" parent="1" vertex="1">
          <mxGeometry x="328.40999999999997" y="11.879999999999999" width="640" height="90" as="geometry" />
        </mxCell>
        <mxCell id="_yqkkNchXxHQxlyg9AlW-1" value="Nitrogen&lt;br&gt;Ground&lt;br&gt;Tank" style="shape=mxgraph.pid.vessels.tank;html=1;pointerEvents=1;align=center;verticalLabelPosition=middle;verticalAlign=middle;dashed=0;labelPosition=center;fillColor=#d5e8d4;strokeColor=#82b366;" parent="1" vertex="1">
          <mxGeometry x="340" y="140" width="75.79" height="180" as="geometry" />
        </mxCell>
        <mxCell id="_yqkkNchXxHQxlyg9AlW-53" style="edgeStyle=orthogonalEdgeStyle;rounded=0;orthogonalLoop=1;jettySize=auto;html=1;entryX=0;entryY=0.75;entryDx=0;entryDy=0;endArrow=none;endFill=0;fillColor=#d5e8d4;strokeColor=#82b366;" parent="1" source="_yqkkNchXxHQxlyg9AlW-3" target="_yqkkNchXxHQxlyg9AlW-51" edge="1">
          <mxGeometry relative="1" as="geometry">
            <Array as="points">
              <mxPoint x="378" y="380" />
              <mxPoint x="440" y="380" />
            </Array>
          </mxGeometry>
        </mxCell>
        <mxCell id="u2SW0ABpoUJYDTLtiYf4-14" style="edgeStyle=orthogonalEdgeStyle;rounded=0;orthogonalLoop=1;jettySize=auto;html=1;entryX=0.999;entryY=0.498;entryDx=0;entryDy=0;entryPerimeter=0;fillColor=#d5e8d4;strokeColor=#82b366;endArrow=none;endFill=0;" edge="1" parent="1" source="_yqkkNchXxHQxlyg9AlW-3" target="_yqkkNchXxHQxlyg9AlW-13">
          <mxGeometry relative="1" as="geometry" />
        </mxCell>
        <mxCell id="_yqkkNchXxHQxlyg9AlW-3" value="" style="verticalLabelPosition=bottom;align=center;html=1;verticalAlign=top;pointerEvents=1;dashed=0;shape=mxgraph.pid2valves.valve;valveType=gate;actuator=man;rotation=-90;fillColor=#d5e8d4;strokeColor=#82b366;" parent="1" vertex="1">
          <mxGeometry x="357.9" y="320" width="40" height="40" as="geometry" />
        </mxCell>
        <mxCell id="_yqkkNchXxHQxlyg9AlW-64" style="edgeStyle=orthogonalEdgeStyle;rounded=0;orthogonalLoop=1;jettySize=auto;html=1;entryX=0;entryY=0.5;entryDx=0;entryDy=0;entryPerimeter=0;endArrow=none;endFill=0;fillColor=#008a00;strokeColor=#005700;dashed=1;" parent="1" source="_yqkkNchXxHQxlyg9AlW-18" target="_yqkkNchXxHQxlyg9AlW-17" edge="1">
          <mxGeometry relative="1" as="geometry" />
        </mxCell>
        <mxCell id="_yqkkNchXxHQxlyg9AlW-18" value="" style="verticalLabelPosition=bottom;align=center;html=1;verticalAlign=top;pointerEvents=1;dashed=0;shape=mxgraph.pid2valves.valve;valveType=gate;actuator=man;rotation=0;fillColor=#008a00;strokeColor=#005700;fontColor=#ffffff;" parent="1" vertex="1">
          <mxGeometry x="520" y="360" width="40" height="40" as="geometry" />
        </mxCell>
        <mxCell id="_yqkkNchXxHQxlyg9AlW-13" value="" style="verticalLabelPosition=bottom;align=center;html=1;verticalAlign=top;pointerEvents=1;dashed=0;shape=mxgraph.pid2valves.valve;valveType=ball;rotation=-90;fillColor=#d5e8d4;strokeColor=#82b366;" parent="1" vertex="1">
          <mxGeometry x="357.9" y="407.97" width="40.09" height="24.06" as="geometry" />
        </mxCell>
        <mxCell id="_yqkkNchXxHQxlyg9AlW-37" value="" style="edgeStyle=orthogonalEdgeStyle;rounded=0;orthogonalLoop=1;jettySize=auto;html=1;endArrow=none;endFill=0;fillColor=#f8cecc;strokeColor=#b85450;" parent="1" source="_yqkkNchXxHQxlyg9AlW-26" target="XI3wudiz58Q5bQnYktP5-1" edge="1">
          <mxGeometry relative="1" as="geometry" />
        </mxCell>
        <mxCell id="_yqkkNchXxHQxlyg9AlW-26" value="" style="verticalLabelPosition=bottom;align=center;html=1;verticalAlign=top;pointerEvents=1;dashed=0;shape=mxgraph.pid2valves.valve;valveType=gate;actuator=man;rotation=-90;fillColor=#f8cecc;strokeColor=#b85450;" parent="1" vertex="1">
          <mxGeometry x="677.9" y="400" width="40" height="40" as="geometry" />
        </mxCell>
        <mxCell id="_yqkkNchXxHQxlyg9AlW-65" style="edgeStyle=orthogonalEdgeStyle;rounded=0;orthogonalLoop=1;jettySize=auto;html=1;endArrow=none;endFill=0;entryX=0.127;entryY=0.979;entryDx=0;entryDy=0;entryPerimeter=0;fillColor=#008a00;strokeColor=#005700;dashed=1;" parent="1" source="_yqkkNchXxHQxlyg9AlW-17" target="XI3wudiz58Q5bQnYktP5-1" edge="1">
          <mxGeometry relative="1" as="geometry">
            <mxPoint x="699.9999999999999" y="380" as="targetPoint" />
            <Array as="points">
              <mxPoint x="670" y="380" />
              <mxPoint x="670" y="318" />
              <mxPoint x="670" y="318" />
            </Array>
          </mxGeometry>
        </mxCell>
        <mxCell id="_yqkkNchXxHQxlyg9AlW-17" value="" style="verticalLabelPosition=bottom;align=center;html=1;verticalAlign=top;pointerEvents=1;dashed=0;shape=mxgraph.pid2valves.valve;valveType=check;rotation=0;fillColor=#008a00;strokeColor=#005700;fontColor=#ffffff;" parent="1" vertex="1">
          <mxGeometry x="600" y="368" width="40" height="24" as="geometry" />
        </mxCell>
        <mxCell id="_yqkkNchXxHQxlyg9AlW-42" value="" style="verticalLabelPosition=bottom;align=center;html=1;verticalAlign=top;pointerEvents=1;dashed=0;shape=mxgraph.pid2valves.valve;valveType=gate;actuator=man;rotation=-90;fillColor=#dae8fc;strokeColor=#6c8ebf;" parent="1" vertex="1">
          <mxGeometry x="957.9000000000001" y="320" width="40" height="40" as="geometry" />
        </mxCell>
        <mxCell id="_yqkkNchXxHQxlyg9AlW-57" style="edgeStyle=orthogonalEdgeStyle;rounded=0;orthogonalLoop=1;jettySize=auto;html=1;endArrow=none;endFill=0;entryX=0;entryY=0.5;entryDx=0;entryDy=0;entryPerimeter=0;fillColor=#60a917;strokeColor=#2D7600;dashed=1;" parent="1" source="_yqkkNchXxHQxlyg9AlW-51" target="_yqkkNchXxHQxlyg9AlW-18" edge="1">
          <mxGeometry relative="1" as="geometry">
            <mxPoint x="510" y="380" as="targetPoint" />
            <Array as="points">
              <mxPoint x="490" y="380" />
              <mxPoint x="490" y="380" />
            </Array>
          </mxGeometry>
        </mxCell>
        <mxCell id="_yqkkNchXxHQxlyg9AlW-51" value="" style="shape=image;verticalLabelPosition=bottom;labelBackgroundColor=default;verticalAlign=top;aspect=fixed;imageAspect=0;image=https://static.thenounproject.com/png/2260802-200.png;imageBackground=none;" parent="1" vertex="1">
          <mxGeometry x="440" y="350" width="38.91" height="38.91" as="geometry" />
        </mxCell>
        <mxCell id="_yqkkNchXxHQxlyg9AlW-56" value="" style="verticalLabelPosition=bottom;align=center;html=1;verticalAlign=top;pointerEvents=1;dashed=0;shape=mxgraph.pid2valves.valve;valveType=gate;actuator=solenoid;rotation=-90;fillColor=#f8cecc;strokeColor=#b85450;" parent="1" vertex="1">
          <mxGeometry x="800.01" y="280" width="40" height="40" as="geometry" />
        </mxCell>
        <mxCell id="_yqkkNchXxHQxlyg9AlW-69" style="edgeStyle=orthogonalEdgeStyle;rounded=0;orthogonalLoop=1;jettySize=auto;html=1;endArrow=none;endFill=0;fillColor=#f8cecc;strokeColor=#b85450;" parent="1" source="_yqkkNchXxHQxlyg9AlW-67" edge="1">
          <mxGeometry relative="1" as="geometry">
            <mxPoint x="820.01" y="380" as="targetPoint" />
            <Array as="points">
              <mxPoint x="861.01" y="380" />
            </Array>
          </mxGeometry>
        </mxCell>
        <mxCell id="_yqkkNchXxHQxlyg9AlW-67" value="" style="verticalLabelPosition=bottom;align=center;html=1;verticalAlign=top;pointerEvents=1;dashed=0;shape=mxgraph.pid2valves.valve;valveType=needle;rotation=-90;fillColor=#f8cecc;strokeColor=#b85450;" parent="1" vertex="1">
          <mxGeometry x="840.01" y="287.56" width="41.47" height="24.88" as="geometry" />
        </mxCell>
        <mxCell id="_yqkkNchXxHQxlyg9AlW-74" style="edgeStyle=orthogonalEdgeStyle;rounded=0;orthogonalLoop=1;jettySize=auto;html=1;endArrow=none;endFill=0;fillColor=#f8cecc;strokeColor=#b85450;" parent="1" edge="1">
          <mxGeometry relative="1" as="geometry">
            <mxPoint x="860.01" y="380" as="targetPoint" />
            <mxPoint x="900.0322222222223" y="320" as="sourcePoint" />
            <Array as="points">
              <mxPoint x="900.01" y="380" />
            </Array>
          </mxGeometry>
        </mxCell>
        <mxCell id="_yqkkNchXxHQxlyg9AlW-73" value="" style="shape=image;verticalLabelPosition=bottom;labelBackgroundColor=default;verticalAlign=top;aspect=fixed;imageAspect=0;image=https://static.thenounproject.com/png/172699-200.png;" parent="1" vertex="1">
          <mxGeometry x="881.48" y="280" width="40" height="40" as="geometry" />
        </mxCell>
        <mxCell id="_yqkkNchXxHQxlyg9AlW-83" style="edgeStyle=orthogonalEdgeStyle;rounded=0;orthogonalLoop=1;jettySize=auto;html=1;endArrow=none;endFill=0;fillColor=#d5e8d4;strokeColor=#82b366;" parent="1" source="_yqkkNchXxHQxlyg9AlW-80" edge="1">
          <mxGeometry relative="1" as="geometry">
            <mxPoint x="380" y="380" as="targetPoint" />
            <Array as="points">
              <mxPoint x="290" y="380" />
            </Array>
          </mxGeometry>
        </mxCell>
        <mxCell id="_yqkkNchXxHQxlyg9AlW-80" value="" style="verticalLabelPosition=bottom;aspect=fixed;html=1;verticalAlign=top;fillColor=#d5e8d4;align=center;outlineConnect=0;shape=mxgraph.fluid_power.x11820;points=[[0.5,1,0]];rotation=0;strokeColor=#82b366;" parent="1" vertex="1">
          <mxGeometry x="270" y="300" width="39.94" height="60" as="geometry" />
        </mxCell>
        <mxCell id="_yqkkNchXxHQxlyg9AlW-85" style="edgeStyle=orthogonalEdgeStyle;rounded=0;orthogonalLoop=1;jettySize=auto;html=1;endArrow=none;endFill=0;fillColor=#f8cecc;strokeColor=#b85450;" parent="1" source="_yqkkNchXxHQxlyg9AlW-84" edge="1">
          <mxGeometry relative="1" as="geometry">
            <mxPoint x="780.54" y="380" as="targetPoint" />
          </mxGeometry>
        </mxCell>
        <mxCell id="_yqkkNchXxHQxlyg9AlW-84" value="" style="verticalLabelPosition=bottom;align=center;dashed=0;html=1;verticalAlign=top;shape=mxgraph.pid.fittings.funnel;fillColor=#f8cecc;strokeColor=#b85450;" parent="1" vertex="1">
          <mxGeometry x="770.01" y="281.81" width="21.06" height="36.37" as="geometry" />
        </mxCell>
        <mxCell id="_yqkkNchXxHQxlyg9AlW-86" value="" style="edgeStyle=orthogonalEdgeStyle;rounded=0;orthogonalLoop=1;jettySize=auto;html=1;endArrow=none;endFill=0;fillColor=#dae8fc;strokeColor=#6c8ebf;" parent="1" source="_yqkkNchXxHQxlyg9AlW-42" target="_yqkkNchXxHQxlyg9AlW-48" edge="1">
          <mxGeometry relative="1" as="geometry">
            <mxPoint x="977.9000000000001" y="430" as="targetPoint" />
            <mxPoint x="978.01" y="360" as="sourcePoint" />
          </mxGeometry>
        </mxCell>
        <mxCell id="u2SW0ABpoUJYDTLtiYf4-3" style="edgeStyle=orthogonalEdgeStyle;rounded=0;orthogonalLoop=1;jettySize=auto;html=1;entryX=1.028;entryY=0.582;entryDx=0;entryDy=0;entryPerimeter=0;endArrow=none;endFill=0;fillColor=#dae8fc;strokeColor=#6c8ebf;" edge="1" parent="1" source="_yqkkNchXxHQxlyg9AlW-48" target="u2SW0ABpoUJYDTLtiYf4-1">
          <mxGeometry relative="1" as="geometry">
            <Array as="points">
              <mxPoint x="978" y="460" />
            </Array>
          </mxGeometry>
        </mxCell>
        <mxCell id="_yqkkNchXxHQxlyg9AlW-48" value="" style="verticalLabelPosition=bottom;align=center;html=1;verticalAlign=top;pointerEvents=1;dashed=0;shape=mxgraph.pid2valves.valve;valveType=ball;rotation=-90;fillColor=#dae8fc;strokeColor=#6c8ebf;" parent="1" vertex="1">
          <mxGeometry x="957.81" y="407.97" width="40.09" height="24.06" as="geometry" />
        </mxCell>
        <mxCell id="_yqkkNchXxHQxlyg9AlW-89" value="" style="verticalLabelPosition=bottom;aspect=fixed;html=1;verticalAlign=top;fillColor=#d5e8d4;align=center;outlineConnect=0;shape=mxgraph.fluid_power.x11740;points=[[0.5,0,0],[0.5,1,0]];strokeColor=#82b366;" parent="1" vertex="1">
          <mxGeometry x="368.41" y="786.22" width="18.98" height="93.78" as="geometry" />
        </mxCell>
        <mxCell id="_yqkkNchXxHQxlyg9AlW-91" value="" style="verticalLabelPosition=bottom;aspect=fixed;html=1;verticalAlign=top;fillColor=#f8cecc;align=center;outlineConnect=0;shape=mxgraph.fluid_power.x11740;points=[[0.5,0,0],[0.5,1,0]];strokeColor=#b85450;" parent="1" vertex="1">
          <mxGeometry x="688.9100000000001" y="786.22" width="18.98" height="93.78" as="geometry" />
        </mxCell>
        <mxCell id="_yqkkNchXxHQxlyg9AlW-92" value="" style="verticalLabelPosition=bottom;aspect=fixed;html=1;verticalAlign=top;fillColor=#dae8fc;align=center;outlineConnect=0;shape=mxgraph.fluid_power.x11740;points=[[0.5,0,0],[0.5,1,0]];strokeColor=#6c8ebf;" parent="1" vertex="1">
          <mxGeometry x="968.4100000000001" y="786.22" width="18.98" height="93.78" as="geometry" />
        </mxCell>
        <mxCell id="_yqkkNchXxHQxlyg9AlW-98" value="" style="verticalLabelPosition=bottom;align=center;html=1;verticalAlign=top;pointerEvents=1;dashed=0;shape=mxgraph.pid2valves.valve;valveType=gate;actuator=man;rotation=0;" parent="1" vertex="1">
          <mxGeometry x="3.51" y="80" width="80" height="80" as="geometry" />
        </mxCell>
        <mxCell id="_yqkkNchXxHQxlyg9AlW-99" value="" style="verticalLabelPosition=bottom;aspect=fixed;html=1;verticalAlign=top;align=center;outlineConnect=0;shape=mxgraph.fluid_power.x11820;points=[[0.5,1,0]];rotation=0;" parent="1" vertex="1">
          <mxGeometry x="20.84000000000001" y="570" width="45.35" height="68.12" as="geometry" />
        </mxCell>
        <mxCell id="_yqkkNchXxHQxlyg9AlW-100" value="" style="shape=image;verticalLabelPosition=bottom;labelBackgroundColor=default;verticalAlign=top;aspect=fixed;imageAspect=0;image=https://static.thenounproject.com/png/172699-200.png;" parent="1" vertex="1">
          <mxGeometry x="3.51" y="478" width="80" height="80" as="geometry" />
        </mxCell>
        <mxCell id="_yqkkNchXxHQxlyg9AlW-101" value="" style="verticalLabelPosition=bottom;align=center;html=1;verticalAlign=top;pointerEvents=1;dashed=0;shape=mxgraph.pid2valves.valve;valveType=ball;rotation=0;" parent="1" vertex="1">
          <mxGeometry x="3.51" y="260" width="80" height="48" as="geometry" />
        </mxCell>
        <mxCell id="_yqkkNchXxHQxlyg9AlW-102" value="" style="shape=image;verticalLabelPosition=bottom;labelBackgroundColor=default;verticalAlign=top;aspect=fixed;imageAspect=0;image=https://static.thenounproject.com/png/2260802-200.png;imageBackground=none;" parent="1" vertex="1">
          <mxGeometry x="8.881784197001252e-15" y="400" width="83.51" height="83.51" as="geometry" />
        </mxCell>
        <mxCell id="_yqkkNchXxHQxlyg9AlW-103" value="" style="verticalLabelPosition=bottom;aspect=fixed;html=1;verticalAlign=top;align=center;outlineConnect=0;shape=mxgraph.fluid_power.x11740;points=[[0.5,0,0],[0.5,1,0]];rotation=90;" parent="1" vertex="1">
          <mxGeometry x="34.04" y="720" width="15.43" height="76.22" as="geometry" />
        </mxCell>
        <mxCell id="_yqkkNchXxHQxlyg9AlW-105" value="" style="verticalLabelPosition=bottom;align=center;html=1;verticalAlign=top;pointerEvents=1;dashed=0;shape=mxgraph.pid2valves.valve;valveType=needle;rotation=0;" parent="1" vertex="1">
          <mxGeometry x="3.51" y="180" width="80" height="48" as="geometry" />
        </mxCell>
        <mxCell id="_yqkkNchXxHQxlyg9AlW-106" value="1/4 Pipe" style="text;html=1;align=left;verticalAlign=middle;resizable=0;points=[];autosize=1;fontSize=16;" parent="1" vertex="1">
          <mxGeometry x="83.51" y="820" width="80" height="30" as="geometry" />
        </mxCell>
        <mxCell id="_yqkkNchXxHQxlyg9AlW-107" value="Quick Disconnect Coupling" style="text;html=1;align=left;verticalAlign=middle;resizable=0;points=[];autosize=1;fontSize=16;" parent="1" vertex="1">
          <mxGeometry x="83.51" y="743.11" width="220" height="30" as="geometry" />
        </mxCell>
        <mxCell id="_yqkkNchXxHQxlyg9AlW-109" value="" style="verticalLabelPosition=bottom;align=center;dashed=0;html=1;verticalAlign=top;shape=mxgraph.pid.fittings.funnel;" parent="1" vertex="1">
          <mxGeometry x="23.25" y="650" width="40.53" height="70" as="geometry" />
        </mxCell>
        <mxCell id="_yqkkNchXxHQxlyg9AlW-110" value="Funnel" style="text;html=1;align=left;verticalAlign=middle;resizable=0;points=[];autosize=1;fontSize=16;" parent="1" vertex="1">
          <mxGeometry x="83.51" y="660" width="70" height="30" as="geometry" />
        </mxCell>
        <mxCell id="_yqkkNchXxHQxlyg9AlW-111" value="Pressure Guage" style="text;html=1;align=left;verticalAlign=middle;resizable=0;points=[];autosize=1;fontSize=16;" parent="1" vertex="1">
          <mxGeometry x="83.51" y="580" width="140" height="30" as="geometry" />
        </mxCell>
        <mxCell id="_yqkkNchXxHQxlyg9AlW-112" value="Pressure Relief Valve" style="text;html=1;align=left;verticalAlign=middle;resizable=0;points=[];autosize=1;fontSize=16;" parent="1" vertex="1">
          <mxGeometry x="83.51" y="500" width="180" height="30" as="geometry" />
        </mxCell>
        <mxCell id="_yqkkNchXxHQxlyg9AlW-113" value="Check Valve" style="text;html=1;align=left;verticalAlign=middle;resizable=0;points=[];autosize=1;fontSize=16;" parent="1" vertex="1">
          <mxGeometry x="83.51" y="349" width="110" height="30" as="geometry" />
        </mxCell>
        <mxCell id="_yqkkNchXxHQxlyg9AlW-114" value="Servo Ball Valve" style="text;html=1;align=left;verticalAlign=middle;resizable=0;points=[];autosize=1;fontSize=16;" parent="1" vertex="1">
          <mxGeometry x="83.51" y="269" width="140" height="30" as="geometry" />
        </mxCell>
        <mxCell id="_yqkkNchXxHQxlyg9AlW-115" value="Needle Valve" style="text;html=1;align=left;verticalAlign=middle;resizable=0;points=[];autosize=1;fontSize=16;" parent="1" vertex="1">
          <mxGeometry x="83.51" y="189" width="120" height="30" as="geometry" />
        </mxCell>
        <mxCell id="_yqkkNchXxHQxlyg9AlW-116" value="Manual Ball Valve" style="text;html=1;align=left;verticalAlign=middle;resizable=0;points=[];autosize=1;fontSize=16;" parent="1" vertex="1">
          <mxGeometry x="83.51" y="105" width="150" height="30" as="geometry" />
        </mxCell>
        <mxCell id="u2SW0ABpoUJYDTLtiYf4-1" value="" style="verticalLabelPosition=bottom;align=center;html=1;verticalAlign=top;pointerEvents=1;dashed=0;shape=mxgraph.pid2valves.valve;valveType=ball;rotation=-180;fillColor=#dae8fc;strokeColor=#6c8ebf;" vertex="1" parent="1">
          <mxGeometry x="1000" y="450" width="40.09" height="24.06" as="geometry" />
        </mxCell>
        <mxCell id="u2SW0ABpoUJYDTLtiYf4-5" value="300bar to 10bar" style="text;html=1;align=center;verticalAlign=middle;resizable=0;points=[];autosize=1;strokeColor=none;fillColor=none;" vertex="1" parent="1">
          <mxGeometry x="410" y="390" width="110" height="30" as="geometry" />
        </mxCell>
        <mxCell id="u2SW0ABpoUJYDTLtiYf4-6" value="Plastic Pneumatics" style="text;html=1;align=center;verticalAlign=middle;resizable=0;points=[];autosize=1;strokeColor=#005700;fillColor=#008a00;fontColor=#ffffff;" vertex="1" parent="1">
          <mxGeometry x="530" y="320" width="120" height="30" as="geometry" />
        </mxCell>
        <mxCell id="u2SW0ABpoUJYDTLtiYf4-9" value="Nitrogen Flight Line" style="text;html=1;align=center;verticalAlign=middle;resizable=0;points=[];autosize=1;strokeColor=#82b366;fillColor=#d5e8d4;" vertex="1" parent="1">
          <mxGeometry x="315" y="880" width="130" height="30" as="geometry" />
        </mxCell>
        <mxCell id="u2SW0ABpoUJYDTLtiYf4-10" value="Methanol Flight Line" style="text;html=1;align=center;verticalAlign=middle;resizable=0;points=[];autosize=1;strokeColor=#b85450;fillColor=#f8cecc;" vertex="1" parent="1">
          <mxGeometry x="632.9" y="880" width="130" height="30" as="geometry" />
        </mxCell>
        <mxCell id="u2SW0ABpoUJYDTLtiYf4-11" value="Nitrous Flight Line" style="text;html=1;align=center;verticalAlign=middle;resizable=0;points=[];autosize=1;strokeColor=#6c8ebf;fillColor=#dae8fc;" vertex="1" parent="1">
          <mxGeometry x="917.9" y="880" width="120" height="30" as="geometry" />
        </mxCell>
        <mxCell id="u2SW0ABpoUJYDTLtiYf4-12" value="" style="endArrow=none;dashed=1;html=1;rounded=0;entryX=-0.132;entryY=0.461;entryDx=0;entryDy=0;entryPerimeter=0;exitX=0.5;exitY=0;exitDx=0;exitDy=0;exitPerimeter=0;strokeWidth=4;dashPattern=1 1;fillColor=#d5e8d4;strokeColor=#82b366;" edge="1" parent="1" source="_yqkkNchXxHQxlyg9AlW-89" target="_yqkkNchXxHQxlyg9AlW-13">
          <mxGeometry width="50" height="50" relative="1" as="geometry">
            <mxPoint x="360" y="610" as="sourcePoint" />
            <mxPoint x="410" y="560" as="targetPoint" />
          </mxGeometry>
        </mxCell>
        <mxCell id="u2SW0ABpoUJYDTLtiYf4-13" value="" style="endArrow=none;dashed=1;html=1;rounded=0;entryX=0.029;entryY=0.559;entryDx=0;entryDy=0;entryPerimeter=0;exitX=0.5;exitY=0;exitDx=0;exitDy=0;exitPerimeter=0;strokeWidth=4;dashPattern=1 1;fillColor=#f8cecc;strokeColor=#b85450;" edge="1" parent="1" target="_yqkkNchXxHQxlyg9AlW-26">
          <mxGeometry width="50" height="50" relative="1" as="geometry">
            <mxPoint x="698.9" y="786.22" as="sourcePoint" />
            <mxPoint x="697.9" y="445.22" as="targetPoint" />
          </mxGeometry>
        </mxCell>
        <mxCell id="u2SW0ABpoUJYDTLtiYf4-15" value="" style="endArrow=none;dashed=1;html=1;rounded=0;strokeWidth=4;dashPattern=1 1;fillColor=#dae8fc;strokeColor=#6c8ebf;" edge="1" parent="1" source="_yqkkNchXxHQxlyg9AlW-92">
          <mxGeometry width="50" height="50" relative="1" as="geometry">
            <mxPoint x="970" y="780" as="sourcePoint" />
            <mxPoint x="978.48" y="460" as="targetPoint" />
          </mxGeometry>
        </mxCell>
        <mxCell id="u2SW0ABpoUJYDTLtiYf4-16" value="" style="endArrow=none;dashed=1;html=1;rounded=0;strokeWidth=4;dashPattern=1 1;" edge="1" parent="1">
          <mxGeometry width="50" height="50" relative="1" as="geometry">
            <mxPoint x="6.75" y="920" as="sourcePoint" />
            <mxPoint x="76.75" y="920" as="targetPoint" />
          </mxGeometry>
        </mxCell>
        <mxCell id="u2SW0ABpoUJYDTLtiYf4-17" value="Hose" style="text;html=1;align=left;verticalAlign=middle;resizable=0;points=[];autosize=1;fontSize=16;" vertex="1" parent="1">
          <mxGeometry x="83.51" y="900" width="60" height="30" as="geometry" />
        </mxCell>
        <mxCell id="u2SW0ABpoUJYDTLtiYf4-18" value="" style="endArrow=none;dashed=1;html=1;rounded=0;strokeWidth=1;" edge="1" parent="1">
          <mxGeometry width="50" height="50" relative="1" as="geometry">
            <mxPoint x="6.76" y="1000" as="sourcePoint" />
            <mxPoint x="76.76" y="1000" as="targetPoint" />
          </mxGeometry>
        </mxCell>
        <mxCell id="u2SW0ABpoUJYDTLtiYf4-19" value="Pneumatic Piping" style="text;html=1;align=left;verticalAlign=middle;resizable=0;points=[];autosize=1;fontSize=16;" vertex="1" parent="1">
          <mxGeometry x="83.51" y="980" width="150" height="30" as="geometry" />
        </mxCell>
      </root>
    </mxGraphModel>
  </diagram>
</mxfile>
